<svg id="Layer_1" data-name="Layer 1" xmlns="http://www.w3.org/2000/svg" width="85" height="70" viewBox="0 0 311.87 292.14"><defs><style>.cls-1{fill:#fff;}</style></defs><path d="M224.84,465.4c.49,1.47,1.83,1,2.84,1.19.11,0,.39-.24.4-.23,1.32,1.77,2.51.49,3.55-.27s2.53-1.24,2.49-3.06c0-.59.66-1.19,1-1.79l.53.67c3.4-2.05,3.93-6.05,6-9,.87-1.27.89-3.12,1.33-4.69a42.05,42.05,0,0,0,1.5-5.28c.53-3.88,1.25-7.78-.16-11.67-1.29-3.58-2.57-7.15-4.79-10.28.81,2.12,1.59,4.25,2.58,6.29a17.75,17.75,0,0,1,1.37,6.36c.19,2.2.26,4.41.38,6.62l-.68,0a14.89,14.89,0,0,1,0-2.41c.65-3.73-.95-7.05-1.95-10.46-.26-.89-1.25-1.57-1.91-2.35.84,3.12,2.17,5.95,2.78,8.92a18.3,18.3,0,0,1-.59,8.88l.64-.92.26.12c-.45,1.87-.89,3.75-1.42,5.95l-.51-1-.32.07.21,1.34c-1,2.23-2,4.26-3,6.39l-.39-.09a4.27,4.27,0,0,1-.2,1.17c-.65,1.46-1.35,2.89-2,4.34l-1-.21,1.05-1.62-.12-.11-5.43,4.93-.28-.19a5.46,5.46,0,0,1,.45-1c.68-.94,1.39-1.86,2.12-2.77a3.12,3.12,0,0,1,.87-.75c.65-.33,2-.11,1.16-1.57,0-.08.67-.56,1-.87s1-.92,1.46-1.39l-.35-.36-.85.55c0-.2,0-.44,0-.49.48-.34,1-.63,1.75-1.1-.61-1.59.4-3.28,1.06-5.07a25.68,25.68,0,0,0,.8-4.15c2.18-.39-.78-1.23-.22-2,1,.48,1.71.21,1.54-1.26-.91-.29-2-.67-1.07-2.16l.73.63a6.81,6.81,0,0,0,.54-1.9,24.49,24.49,0,0,0-6.31-16.18c-.29-.32-.89-.35-1.19-.47,2.05,3.76,4,7.39,6,11L238,432l-3.71-5.18c1.08,3,2.1,6,1.68,9.25-.79-2.32-1.53-4.65-2.41-6.93-.14-.36-.92-.47-1.56-.78,0,.47,0,.83.1,1.65l-1.89-1.77c.46,2.2.93,4.12,1.24,6.07,1.53,9.59-1.89,17.13-10,22.32-3.47,2.24-7.45,3.68-11.2,5.47a1,1,0,0,1-1-.15l4.54-2-1.48-.39c6.71-2.19,12-6,14.56-12.13,1.67-4,3.09-8.51,1.59-12.89l-1.36-.45.49-1.12.42.06-1-1.86-.15,1.91a39.77,39.77,0,0,0-2.33-3.29c-3-3.42-7.13-4.8-11.38-5.83a30.38,30.38,0,0,0-11.79-.46,2.89,2.89,0,0,0-1.69.87l2.5.17.05.32c-2.22.57-4.7,2-6.61,1.5-2.44-.7-3.62.66-5.06,1.52-6.28,3.73-11.7,8.56-17,13.58-.52.49-1,1-1.56,1.47-1.45,1.17-2.66,2.48-4.77,2.9-1.88.38-3.52,1.89-5.3,2.92-1.4-1.53-2.91.35-4.72,0l1.95-2.36-1.42.28v-3c-.52.21-1.16.49-1.82.74a6.55,6.55,0,0,1-2.32.46l3.51-2.62-.56-.63a7.83,7.83,0,0,1-1.19.67,15.19,15.19,0,0,1-1.65.38c-.07-.57-.15-1.13-.19-1.69a4.17,4.17,0,0,1,.21-.88l-3.88,2-.44-.35.77-3c-2,2-3.23.34-4.39-1.17L147.8,435l-.22-.22-1.77,1.37c1-1.76,1.91-3.27,2.93-5l-.93.18-.52-1.94,0,.05c0-3,.14-6,.12-9,0-.35-.61-.69-.93-1l-.8,1.27-.49-.33.07,5.72.72-.26a8.47,8.47,0,0,1-.66,1.83c-.24.4-.76.63-1.16.94a3.9,3.9,0,0,1-.62-1.33c-.08-1.76,0-3.52-.06-5.28a3.85,3.85,0,0,0-.49-1.16l-.73-.07c1.58-2.05,3.06-4.19,4.76-6.13,10.78-12.3,23.68-21.43,39.57-25.9s31.68-3.84,46.81,3.19c14.47,6.71,24.5,17.42,28.25,33.32a40.71,40.71,0,0,1,.82,5c.18,1.67.2,3.37.31,5.51-.67-3.83-1.25-7.2-1.84-10.57l-.43.07c.28,2.44.74,4.88.82,7.33.18,5.09.18,10.19.19,15.29,0,.41-.51.82-.77,1.24a7.51,7.51,0,0,0-.85,1.36c-.49,1.34-.83,2.73-1.35,4.05-.19.46-.71.79-1.08,1.18a1.23,1.23,0,0,0-.27.34c-.76,1.85-1.42,3.75-2.28,5.56-.53,1.11-1.41,2.05-2,3.13a13.93,13.93,0,0,0-1.31,3,6,6,0,0,1-4.09,3.62l1.43-2.37-.18-.1-3.43,3.82c4.13,2.62,8.43,4.93,12.23,7.88,4.06,3.16,7.63,6.94,11.45,10.4a6.37,6.37,0,0,0,1.91,1c.73.31,1.49.55,2.44.89-.84-2.14-3.31-2.31-4.68-4.27,1.17.42,2,.65,2.84,1a27.65,27.65,0,0,0,13.91,2.78c5-.28,8.57-3,11.2-7.17,2.49-3.91,2.88-8.31,3.23-12.78,1.21-15.33,4.94-29.9,13.78-42.77,9.16-13.33,21.69-21.7,37.73-24.21,16.81-2.64,32.16,1.57,46.14,11,2.64,1.77,5,3.91,7.52,5.9a7.22,7.22,0,0,1,3,4.15,1.39,1.39,0,0,0-.21.21l0,0-1.7,1.42-.27-.16-1.52-1.51c-7.75-7.5-16.37-13.59-26.86-16.66-3.13-.91-8.25-1.67-10.15-.93,1.58.26,3,.47,4.48.73,6.13,1.08,12.13,2.48,17.31,6.22,2.09,1.5,4.3,2.82,6.41,4.29,6.23,4.32,11.81,9.3,15.65,15.89l1-.29,0-.05c.1.8-.06,1.77.34,2.37,6.87,10.23,10.5,21.73,12.4,33.69,1,6.55.67,13.36.58,20.05-.07,4.87-.71,9.73-1.1,14.6l.05,0c-.34.42-.7.81-1,1.25s-.73.85-.7,1.24c.34,4.22-1.3,8-2.62,11.83a99.44,99.44,0,0,1-22.18,36.64,46.32,46.32,0,0,1-3.65,3.34c-8.67,7.36-18.29,13-29.5,15.52a68.62,68.62,0,0,1-30.38-.33A27.9,27.9,0,0,1,330,574.7a29.45,29.45,0,0,1-4.45-2.48c6.09,1.25,11.83,4.15,18.21,3.81l.09-.44-2.3-.43c-.76-.14-1.51-.3-2.26-.45-2.58-.53-5.18-1-7.72-1.62-3-.77-5.84-2-8.83-2.57-2.73-.53-4.91-2-7.1-3.39A61,61,0,0,1,299,551.65a3,3,0,0,1-.65-1.65c.4.54.78,1.1,1.21,1.61.69.82,1,2,2.43,2.12.46,0,.94.89,1.25,1.46a17.46,17.46,0,0,0,8.06,7.37c4,2,7.79,4.3,11.85,6.06,9.16,4,18.79,6,28.76,5,3.56-.36,7.26-.17,10.71-1.23,3.6-1.11,7.12-2.51,10.62-3.9a22.36,22.36,0,0,0,3.2-1.94l-.2-.39-3.22,1.56-.16-.18a10.55,10.55,0,0,1,2-1.57c2.42-1.09,4.94-2,7.36-3.08a11.63,11.63,0,0,0,2.59-1.91,9.63,9.63,0,0,0,1.11-1.4c1.47,1.29,2.1-.12,2.92-.88l.32.37c-.6.57-1.17,1.18-1.82,1.69s-1.6,1.11-2.41,1.66l.24.63c1.48-.1,3-.12,4.44-.33.47-.07.89-.63,1.31-1l4.78-4.3-.48-.52-3.4,3-.43-.16.49-2.78-1-.19c.46-1.11.9-2.2,1.41-3.45a1.22,1.22,0,0,0,2.17-.54c.43-1.74,1.81-2.37,3-3.28s2.3-1.79,3.39-2.64c-.37-.91-.62-1.51-1-2.36,2,.25,2.9-.38,2.63-2.26a1.67,1.67,0,0,1,.57-1.27c2.5-2,2.83-5.1,4.13-7.7.79-1.59,1.74-3.11,2.51-4.72.25-.54,0-1.3.25-1.87a12.06,12.06,0,0,1,1.23-2.06c.23-.34.64-.58.78-.93.89-2.36,1.77-4.73,2.57-7.12a1.87,1.87,0,0,0-.36-1.64l-1.35,4.65-.6,0C421,493,418.56,467.81,404.32,444l-.56.12c1.07,1.87,2.19,3.72,3.21,5.62a70.62,70.62,0,0,1,8.56,31.48c.08,2.64-.81,5.34.18,7.93s-.17,4.64-.88,6.89c-.2.64.07,1.41-.18,2.16a24.41,24.41,0,0,1-.16-2.69,98.62,98.62,0,0,0-3.1-32.83c-3-10.55-8.23-19.9-16.5-27.35a2.33,2.33,0,0,0-.39-.29c2.61,3.39,5.67,6.91,8.22,10.77a68,68,0,0,1,10.68,29.79c2.58,21.2-1.78,40.95-12.58,59.32-.69,1.17-1.36,2.35-2,3.53l.05-.06c-1.65,2.1-3.3,4.21-5,6.3a32.19,32.19,0,0,1-2.47,2.87,11.3,11.3,0,0,1-2.13,1.27l-1,2.38.6.26-1,1.14a5.6,5.6,0,0,1,.77-5.9q3.45-4.21,6.68-8.62a79.92,79.92,0,0,0,4.6-6.78c.88-1.49,1.26-3.28,2-4.85a102.17,102.17,0,0,0,7.32-20.24c2-7.93,1.63-15.91,1.28-23.91a73.59,73.59,0,0,0-4.07-21.58c-.29-.83-.63-1.64-1-2.45a.55.55,0,0,0-.39-.3A78.5,78.5,0,0,1,410,484.29a104.21,104.21,0,0,1-3.36,26.48c1.32-10.79,4.38-21.54,1.06-32.41h-.67a65.23,65.23,0,0,1,.81,7.45c0,4.91.25,9.91-.6,14.7-.5,2.82-.56,5.79-1.55,8.52-.54,1.49-1.39,2.87-2,4.32a4.37,4.37,0,0,0-.38,2c.3-.67.61-1.33.91-2a36.68,36.68,0,0,1-4.32,11.76c-.08.14-.63,0-.72.16-.33.55-.93,1.32-.76,1.73.43,1.06,0,1.48-.78,2-.37.23-1,.67-.95.84.42,1.42-.81,1.93-1.4,2.79-1.42,2.08-3.48,3.76-4,6.43-.09.41-1.22.5-1.6,1-.56.69-.77,1.68-1.33,2.36-1.55,1.89-3.21,3.69-4.84,5.5-.09.1-.4,0-.86-.31l2-1.17-.46-.53c-1.1.83-2.16,1.7-3.3,2.45a2.41,2.41,0,0,1-1.42.24c-.15,0-.28-.5-.41-.78a12.64,12.64,0,0,0,1.27-.53c1.09-.59,2.17-1.21,3.33-1.87l-.62-.85c1.77-1.91,4.67-2.48,5.22-5.51l-1.33,2-.48-.51c1-1,1.29-2.76,3.31-2.63.24,0,.55-.59.78-1,.5-.76,1-1.55,1.56-2.54l-1.29.62c1.72-2.94,3.26-5.64,4.87-8.31a14.86,14.86,0,0,0,2.55-8.8c.42.15.6.2.76.28s.27.17.46.29c.44-.86,1.18-1.56.26-2.66-.33-.39-.05-1.3.34-2l.59,1.09a3,3,0,0,0,.75-4.3,3.15,3.15,0,0,1,0-1.87,5.65,5.65,0,0,1,1-2.28l-.1,1.42.41.15a25.6,25.6,0,0,0,1.41-3.8,87.11,87.11,0,0,0,1.56-9.18,73.17,73.17,0,0,0,.06-7.84,75.11,75.11,0,0,0-3.53-22.86,9.16,9.16,0,0,0-.8-1.47c-.3-3-2.06-5.38-3.17-8l-.4.17,3.6,7.83c-.82,1-.39,2-.12,3a77.31,77.31,0,0,1,2.15,8.77c.48,3.64.43,7.34.64,11,.12,2.06.3,4.12.44,6.17a3.1,3.1,0,0,1-.12.66c-1-6.48-1.95-12.87-2.92-19.26a76.39,76.39,0,0,1-1.33,27.94c.11-1,.23-2,.31-3.05s.16-2.09.16-3.13c0-4.56,0-9.12-.1-13.68a7.9,7.9,0,0,0-1-2.45l-.88,1.35c-.62-2.3-1.89-4.66-1.66-6.87s-1.17-3.27-1.54-4.94a90.68,90.68,0,0,1,1.76,20.45c-.72,17.73-5.81,33.86-18,47.18-2.93,3.21-6.63,5.73-10.07,8.46-1.27,1-2.73,2-4.59.73,2.29-1.85,4.74-3.59,6.9-5.63,3.48-3.28,6.76-6.75,10.12-10.16a4.58,4.58,0,0,0,1-1.3c3.47-8,7.81-15.7,9.62-24.42,1.91-9.2,2.27-20.47.21-27.4l.59,5.27-.34.06c-.46-2.5-.82-5-1.41-7.49-2.31-9.79-6.49-18.59-14.41-25.13-6.85-5.65-14.57-7.8-23.21-4.68a59.41,59.41,0,0,0-6.34,3.16l.24.49a9.21,9.21,0,0,1,1.47-.59c3.78-.83,7.53-2,11.36-2.33s7.57,1,11,2.78a3.21,3.21,0,0,1,2.08,2.4c.14.78,1.38,1.62,2.3,1.95a4.76,4.76,0,0,1,2.4,2.23,43.42,43.42,0,0,1,2.39,3.66c-1.75-1.62-3.4-3.37-5.28-4.81-1.7-1.28-4.13-1.83-5.39-3.39-1.77-2.19-4.09-2.85-6.43-3.49-5.95-1.61-10.74.6-14.71,5.1,5.28-3.39,10.84-5.28,17.58-3.58-2,0-3.48-.06-5,0a30.28,30.28,0,0,0-4.57.5c-6.35,1.38-10.68,5.43-13.3,11.1-2.73,5.91-4.8,12.13-7.33,18.14-3.66,8.71-8,17-15,23.62-7.74,7.27-16.8,11.52-27.56,11.61a30.55,30.55,0,0,1-12.34-2.55c-.44-.19-.89-.35-1.31-.51.82,3.44,1.8,6.81,2.41,10.24a67.67,67.67,0,0,1-6.43,43.23c-6.24,12.45-15.44,22.1-28,28.34a58.43,58.43,0,0,1-18.55,5.47,6.72,6.72,0,0,1-1.13-.05c.29-1.08,0-2.4,1.78-2.32.16,0,.3-.54.53-.62a2.91,2.91,0,0,1,1.43-.26c1.72.33,1.73.43,2.59.12a9.55,9.55,0,0,0,1.37-.87c.27-.15.65-.38.88-.29,1.56.57,2.71-.27,3.89-1l4.31-1.91,5-2.22a22.89,22.89,0,0,0-5.05,1.69,2.94,2.94,0,0,0,.13.56c-1.78-.43-3.14.6-4.57,1.35-3.1.69-6.17,1.47-9.29,2a22.7,22.7,0,0,1-4.2,0,7.26,7.26,0,0,0-1.4.07,31.26,31.26,0,0,1-4.14.74c-9.28.32-18-2.32-26.63-5.31a18,18,0,0,0-4.08-1.13c2.34.94,4.64,1.94,7,2.8a77.36,77.36,0,0,0,23.92,4.8c1.13,0,2.25.14,3.38.14.24,0,.47-.35.73-.45a5.61,5.61,0,0,1,1-.24c0,.35.09.83-.1,1a4.79,4.79,0,0,1-3.64,1.85c-11.58.08-22.47-2.79-32.94-7.52a52.64,52.64,0,0,1-6.41-3.33l14.07,6.09.18-.44c-3.59-1.57-7.2-3.09-10.76-4.71-3-1.37-6-2.72-8.86-4.34a52.51,52.51,0,0,1-5.44-4c-1.54-1.16-3.08-2.3-4.6-3.47-.33-.25-.58-.6-.89-.88-.74-.68-1.5-1.36-2.25-2s-1.53-1.37-2.3-2-1.33-1.07-1.94-1.66c-1.41-1.34-2.78-2.72-4.18-4.08-1.56-1.52-3.14-3-4.67-4.56-.46-.46-1.11-1-1.12-1.57,0-2-1.39-3-2.65-4.17L143.35,549l-3.63-5c-1.54-2.15-3.11-4.29-4.62-6.47-1.72-2.48-3.41-5-5-7.5-.39-.61-.45-1.43-.79-2.08-3.38-6.39-6.8-12.76-10.19-19.15a2.81,2.81,0,0,1-.32-1.57c1.21,2.24,2.38,4.51,3.64,6.71,1.16,2,2.37,4,3.66,6,1.77,2.69,4.05,5.13,5.36,8,2.93,6.45,7.67,11.54,11.93,17,.83,1,1.66,2.5,2.77,2.84a4.9,4.9,0,0,1,2.56,2.16c1.31,1.76,2.49,3.62,3.83,5.35.38.5,1.21.64,1.66,1.1,2.25,2.37,4.42,4.81,6.68,7.16a20.38,20.38,0,0,0,2,1.37c.65.48,1.33.94,2,1.46.83.69,1.58,1.48,2.45,2.11,2.29,1.66,4.6,3.28,7,4.85a93.65,93.65,0,0,0,9,5.42l-1.1-1.24c.9.5,1.44.74,1.93,1.06a13.21,13.21,0,0,0,2.55,1.76c8.91,3.18,17.65,7.05,27.32,7.32,8.1.23,16.15,0,23.76-3.36l3.15-1.41a.66.66,0,0,0,.36-.56l-3.57,1.47a48.87,48.87,0,0,1-21.26,3.53,64.27,64.27,0,0,1-9.06-1.55,6.55,6.55,0,0,1-1.56-.79l0,0c.59,0,1.18.08,1.76.14l7,.68a5.06,5.06,0,0,0,1.46.43c3.38-.06,6.76-.16,10.13-.28,6-.21,11.33-2.3,16.5-5.07a10.82,10.82,0,0,0,1.13-.67c.31-.21.59-.46.88-.69A58,58,0,0,1,230,584.93a56.07,56.07,0,0,1-15.57.87c-1-.12-2.05-.22-3.06-.39-2.34-.37-4.68-.77-7-1.15l.06,0c-2.46-.81-5-1.45-7.37-2.47-4.82-2.07-9.55-4.35-14.32-6.54l-1.47-.64.06.07-6-3.54L175,571l-6.37-5.31-.34.41,2.92,2.74-7.18-5.23.27-.37,1.42.88.26-.23a6.89,6.89,0,0,0-.66-.85c-1.59-1.44-3.2-2.86-4.8-4.28a11.26,11.26,0,0,0-4.06-2.85c-1.14-.36-2-1.65-3.2-2.73l1.45-.2c-1.39-1.61-2.52-3.14-3.87-4.44-7.15-6.9-12.91-14.9-18.18-23.31l2.18,3c.77,1.07,1.53,2.15,2.33,3.2a5,5,0,0,0,.82.68l.54-.92,6.6,9c1.11,1.51,1.87,3.3,3.82,4.08.42.16.4,1.2.79,1.65,1.07,1.25,2.24,2.42,3.39,3.6s2.14,2.16,3.24,3.21c.55.53,1.16,1,1.73,1.47,3.69,3.38,7.3,6.84,11.09,10.1a68,68,0,0,0,6.13,4.31,90.73,90.73,0,0,0,18.91,10.29,76.13,76.13,0,0,0,20.32,4.59c1.53.13,3.08.09,4.62.08s3,0,4.45-.12,2.87-.4,4.3-.61c-11.45,1.64-22.35-.39-32.9-4.76,2.83.74,5.6,1.76,8.45,2.42s5.76,1,8.64,1.41l.12-.62a8.05,8.05,0,0,0-1.35-.33c-7-.54-13.67-2.7-20.11-5.46-1.58-.67-2.93-2-4.55-2.44a20.2,20.2,0,0,1-5.94-2.4,25.57,25.57,0,0,1-2.61-1.49c-1.06-.92-1.37-2.69-3.21-2.75-.16,0-.4-.25-.46-.44-.34-1-1.11-1.06-2-.9-.08-.25-.08-.6-.24-.73-2.11-1.67-4.24-3.31-6.37-4.95a3.64,3.64,0,0,0-.67-1.1c-2-1.62-4-3.2-6-4.79l1-.32,0,0a6.53,6.53,0,0,1,3.7,3c.26.39,1,.43,1.49.7s1,.5,1.15.89c1.07,2.32,3.38,3.19,5.37,4.08a15.2,15.2,0,0,1,3.87,2.19l-1.16-.22-.18.4,11,6.18-.21.33c1,.37,1.93.71,2.89,1.11a26.15,26.15,0,0,1,2.52,1.17,20.32,20.32,0,0,0,2.57,1.65c7.75,2.93,15.62,5.39,24,5.4,2.78,0,5.56-.22,8.34-.34v-.56c-3.63,0-7.28.22-10.89-.06a72.82,72.82,0,0,1-10.8-1.86l10.06.73-16.49-4,.14-.57c2.58.66,5.15,1.38,7.75,2,2.14.47,4.32.81,6.49,1.12.75.11,1.84.34,1.47-1.48h8.86v-.33c-3.22-.23-6.45-.37-9.66-.69A72.53,72.53,0,0,1,184.27,565c-12.58-6.91-23.15-16.31-32.78-26.82q-5.12-5.58-9.73-11.59a46,46,0,0,1,3.43,3.41,151.74,151.74,0,0,0,28.46,26.12c9.11,6.56,18.91,11.74,29.92,14.37a4.54,4.54,0,0,0,3,0c1.05-.41,2.54.26,3.82.54,1.73.39,3.44.86,5.16,1.3l.13-.63H213c10.31,0,19.66-2.61,27.06-10.19s10.34-16.68,10.17-27l-.4-.12-.36,3.51-.32,0c-.14-2.46-.25-4.92-.45-7.37-.09-1.14-.38-2.27-.57-3.4-.07-.43-.28-1-.12-1.29,1-2.21-.36-3.79-1.38-5.4-4.17-6.55-10.21-10.9-17.24-13.78C224,504.53,218.46,503,213,501.09c-1.27-.44-2.62-.55-3.54-1.95-.5-.76-1.89-1-2.92-1.33-1.31-.41-2.65-.69-4-1-1-.21-2.07-.34-2.28-1.7,0-.26-.5-.5-.81-.67-1.06-.58-2.13-1.13-3.19-1.68l0-.47,5.35.35-2.52-.74c1.28-2.38,3.4-2,5.45-1.73l0-.42-4.64-.24.08-.2-2.54-.47,1.89-.48-2.68-.81.09-.48,7.53.84.07-.21-4.58-1.56.05-.72,3.2-1.15-6.23-1.69,0-.68,4.16-1.1-3.5-1.22.2-2,.8-.39-.71-.45,0-.31h5.74l0-.36-3-.46v-.29h4.16v-.2l-3.74-.52,0-.34,7.77.78v.21l-2.4.1v.1l4.39.42c-2.25-2.08-5.28-1.1-7.78-2.36l7.44.73,0-.27-9.4-1.2,0-.36,6.68.48c-.69-1.52-3.85-.75-3.12-3.45-1.94-.76-4.28-.65-6.1-2.48l1.46-.44-.54-.88,1.31-.4-.8-.68a45.07,45.07,0,0,1,18.71-.27c-.37,0-.74,0-1.11,0s-.74-.13-1.12-.19l-.06.52,8.46.77Zm102-41.87c-1.27.12-1.19.93-.92,1.83.35,1.19.34,2.24-1,2.81l-.19-2.43c-1.38.77-1.69,1.88-.83,2.69.52.49,1,.59,1-.35,1.6.75,1.72-.43,1.94-1.48l.14,2.18.44,0c-.08-1.77.3-3.57-.68-5.27.17-.23.51-.63.5-.65-.57-.5-1.17-1.35-1.78-1.36a1.82,1.82,0,0,0-2,1.88C324.61,423.34,325.9,420.72,326.8,423.53Zm-101-1.36-1.87.29c.85,1.15,1.34,2.45,2.24,2.89s.79.81.86,1.42a8,8,0,0,0,.28,1.62c.08.22.45.34.69.5.12-.21.33-.43.33-.65a15.79,15.79,0,0,0-.07-2.92,1.59,1.59,0,0,0-.91-1.12c-1.27-.21-1.56-1-1.57-2.09.86.48,2.36.17,2.12,2l1.58-1.19a22.43,22.43,0,0,0-11.18-6.31c1.25.64,2.57,1.17,3.86,1.73C223.87,419.12,225.69,419.82,225.77,422.17ZM367.89,573.69l4.55-1.63c.17,0,.37,0,.49-.07,1-.71,2-1.5,3.06-2.14s2.52.19,2.91-1.5c0-.11.41-.26.58-.21,1.9.57,2.81-1,4-2a2.78,2.78,0,0,0-1.78.18c-11.21,6.13-23,10-36,9.35a4.19,4.19,0,0,0-.7.09,1.71,1.71,0,0,0,1.3.59c4-.16,8-.14,12-.61A93.92,93.92,0,0,0,367.89,573.69ZM243.6,454.9c-1.23,2-2.5,4.05-3.65,6.13-.21.39,0,1.07.13,1.6,0,.28.35.67.25.8-.63.82-1.34,1.59-2.17,2.55v-2.12l-.44-.36L232.35,468c1.93.67,3.4,1.21,4.89,1.7,1.91.64,3,0,3.5-2a3.07,3.07,0,0,1,.19-.44l1,.88c.28-.55.71-1,.67-1.39-.29-2.66,2.54-3.38,3.27-5.38,0,0,.1,0,.15-.06,2.1-1,2.13-1.1.93-2.91l1.21-.24a8.12,8.12,0,0,1,.18-2c.48-1.34,1.08-2.63,1.64-3.95l-.49-.21-1,1.46c-.1-.23-.2-.35-.18-.43.52-2,2.75-3.36,2-5.78,0,0,0-.09.08-.14a18.18,18.18,0,0,0,1.35-3,8.19,8.19,0,0,0-.21-5.87l-.53,1.43c-.07-12.83-3-17.78-7.17-21.45.83,1.84,1.77,3.86,2.66,5.91.51,1.16.71,2.52,1.45,3.49,1,1.34.61,2.5.15,3.81a45.19,45.19,0,0,0-6.39-14c-3-4.21-6.57-7.75-11.22-9.75,2.85,2.68,6,5.26,8.69,8.28,7.49,8.45,10.29,18.28,7.65,29.37a101.21,101.21,0,0,1-3.32,9.62Zm7,9.36a43.86,43.86,0,0,0,8.62-24.62c.44-10.35-1.9-19.93-8-28.46a20.74,20.74,0,0,1-1.48-2.87,29.86,29.86,0,0,1-2.39-2.38c-.43-.53-.46-1.43-.94-1.87a34,34,0,0,0-5.38-4.48,119.3,119.3,0,0,0-11.45-5.94,77.67,77.67,0,0,0-8.18-2.73l-.19.54c.83.33,1.64.74,2.5,1a45.81,45.81,0,0,1,15.14,7.25c5.54,4.24,10.59,9,13.83,15.07,3.85,7.23,6.22,15,5.73,23.54a53.59,53.59,0,0,1-4.79,20.2C252.68,460.46,251.6,462.34,250.59,464.26ZM316.52,502a2.71,2.71,0,0,0,.41-.23,53.31,53.31,0,0,0,16.53-24.9c2.42-7.77,5.09-15.45,10-22a98.61,98.61,0,0,1,6.68-7.35c-1.6,1.08-3.25,2.23-4.94,3.32s-2.12,3.3-4.35,3.53c-.15,0-.32.42-.38.67-.28,1-.42,2.13-.79,3.14C334,473.85,328.27,489.53,316.52,502ZM341,463c-5.76,10.64-9.47,22.26-15.9,32.56C332.93,486,336.31,474.19,341,463ZM272.31,563.28c-3,4.34-5.09,9.08-9,12.54s-7.61,7-10.9,10C259.07,582.16,270.28,570.88,272.31,563.28Zm6.29-56.54c1.55,3.46,14.66,6.07,20.63,4.15A40.93,40.93,0,0,1,278.6,506.74ZM385,444.16l-.32.28a5.32,5.32,0,0,0,.44.59,47.77,47.77,0,0,1,9.63,13.83,15.93,15.93,0,0,1,.56,2.83,6.52,6.52,0,0,0,.66,1.21A18.41,18.41,0,0,1,397.4,466a10.43,10.43,0,0,1,.05,2.74l.5.08c.14-.43.49-.92.4-1.29a49.18,49.18,0,0,0-9.16-18.74C387.88,447.16,386.39,445.69,385,444.16ZM219,401.79c8.68,2.5,16.47,6.53,22.67,13.3C235.69,407.87,227.89,403.85,219,401.79Zm58.79,150.27-.67-.22-.81,2,.36.13.32-.73c.26,1.64-.4,3.17.28,4.49l.52-.07Zm128.9-81.77-.62.08c.4,1.93.8,3.85,1.27,6.15C408.39,474,407,472.22,406.65,470.29Zm-16.8-15.47-.68.35,3.06,5.64.54-.29ZM212.33,389.33l-.1.56,8.06,1.23.07-.46ZM392.5,462l1.56,3.77.39-.17C394.21,464.21,394.59,462.58,392.5,462ZM216.85,493.28l.13-.39-7.14-1.12-.06.39Zm58.36,62.19-1.74.3,1.52,2.07.39-.21C275.33,557,275.28,556.29,275.21,555.47Zm-41.91,16.4-.19-.51-4.45,1.72.18.45Z" transform="translate(-118.75 -305.39)"/><path d="M260.54,378.91a33.11,33.11,0,0,0-3.24-2.7c-.4-.27-1.2.09-1.82.16l0,.52-1.71-1.54,2.19-.67c-.84-1-1.46-1.85-2.13-2.62a34.31,34.31,0,0,1-3.88-4.42,54,54,0,0,1-4.24-8.87,19.74,19.74,0,0,0,6.87,8.23l.41.43a16.52,16.52,0,0,0,1.74,2.76c.53.56.85,2,2.23,1.12.06,0,1.24.21.49,1.08-.09.11.25.78.53,1a34,34,0,0,0,6.58,4.62,65.4,65.4,0,0,1,5.62,3.82c1,.64,2.11,1,3,1.72a12.66,12.66,0,0,1,1.81,2.25l2.35-.2.06,0a7.78,7.78,0,0,1,2.19-.12c2.43.58,4.81,1.3,7.22,2l.11-.44c-1.62-.41-3.26-.71-4.84-1.24s-3.17-.6-4.36-2.14l1.74-.72-2-2.53.28-.32,9.46,2.39.11-.38-9.3-3.78.08-.44,3.87.31-6.52-3.31c2.23-.29,4,1.7,6.39.72-.94-1.39-.15-1.5,1-1.59q-2.25-1.31-4.49-2.62c-5.22-3.07-10.58-6-14.42-10.83-1.8-2.28-3.2-4.87-4.78-7.33l.65-.42L261,354.9l.34-.59c5.46,7.76,13.14,12.4,22,15.43l-.58-.66c3.77.31,7.67.75,11.58.9a38.45,38.45,0,0,0,11.55-1.42l0-.43-1.75-.27c1.8-.69,3.48-1.89,5.49-1l-2.13.56.15.48a23.44,23.44,0,0,0,3.62-1.36c3.93-2.2,7.88-4.38,11.63-6.86,1.66-1.1,3.26-1,5-.89a6.17,6.17,0,0,1,5.16,4.32l1.77-.58v1.8c1.81-.71,1.92.82,2.59,1.86l1.31-1.48,1.67,2.56,1.09-.5c.28.24.59.44.84.7.69.76,2.14,1.15,1.3,2.71-.07.14.5.63.77,1l.48-.15-.87,3.15,1.71-1.24-.22,1.51,1.36-2,.31.16-1.21,2.7,3.15.31,0,.42c.46-.37.9-.78,1.39-1.11.83-.56,1.36-.25,2.1.43,2.08,1.93,1.28,4,.56,6.1a21.32,21.32,0,0,1-1.33,2.82c-.57,1.08-1.76,1.59-2.5,2.36-8.45,8.79-18.8,14.14-30.38,17.39a86.57,86.57,0,0,1-32,2.64c-6.56-.64-12.58-2.92-18.46-5.68-1.54-.72-3.13-1.33-4.68-2a2.2,2.2,0,0,1-1.16-1.23l6.23,2.83.18-.39-9.19-4.81-.2.3,1.46,1.25c-1.09-.57-3-.19-2.68-2.41.05-.33-.77-.83-1.24-1.19s-1.16-.81-2-1.37l.93-.19a1,1,0,0,0-.18-.26c-1.48-1.18-2.93-2.41-4.46-3.52-.66-.48-1.56-.62-2.22-1.09-.86-.6-2.17-1.06-1.45-2.69l1.25.67c-4.57-5.06-8.77-10.35-11.44-16.71l3.5,5.53c-.78-3.23-3.57-5.68-3.28-9.27a93.49,93.49,0,0,0,7.46,12.4l.47-.24a24.28,24.28,0,0,0-1.48-3c-1.32-2-2.8-3.92-4.12-5.93-.24-.37,0-1,0-1.58-3.86-3.08-4-8-5.66-12.23.76.85,1.66,1.59,1.54,2.93a2.16,2.16,0,0,0,.46,1.18c1.17,1.85,2.36,3.68,3.54,5.51,1.56,2.42,3.08,4.85,4.67,7.24q1.64,2.44,3.42,4.75c.2.26.77.25,1.16.36l-.39-.95c1.47.16,2,1,1.84,2.67.24.51,1.62.25.94,1.39a2.32,2.32,0,0,0,.66.18c1.1-.06,1.29.94,1.68,1,1.61.16.49,3.11,2.7,2.41.38-.13,1,.46,1.49.74a13.37,13.37,0,0,0,1.87,1.06,27.22,27.22,0,0,1,3.47,2.08c1,.72,1.86,2.16,3.56,1.27.37-.2,1.07.09,1.56.28,1.52.62,3,1.31,4.53,2a11.58,11.58,0,0,0,6.31,1.24c1-.14,2.09.53,3.16.76a49.16,49.16,0,0,0,18.49.73c-.52,0-1.05,0-1.58,0s-1.21,0-1.81.07a47.91,47.91,0,0,1-20.06-2.82c-.51-.2-1-.5-1.5-.67a5.45,5.45,0,0,0-2.57-.3L272.15,387c6.19,1.35,11.49,4.83,17.76,4-2.37-.46-4.74-.84-7.08-1.39a54.25,54.25,0,0,1-21.37-10.21,7.9,7.9,0,0,0-1-.58Zm42.35,24.64,0-.55a34.38,34.38,0,0,1-8.11.08,54.5,54.5,0,0,1-7.28-.7A73.73,73.73,0,0,1,264,393.63c-4.12-2.49-8-5.4-12-8.11a5.86,5.86,0,0,0-.61-.32,57.38,57.38,0,0,0,12.69,9.65,117.36,117.36,0,0,0,17,7c.82.22,1.45,1,2.44.47,0,0,.27.12.26.14-.28,1.19.7.89,1.2.92,4.32.23,8.65.47,13,.58A49.06,49.06,0,0,0,302.89,403.55Zm-6.05-25.19-8.56-.42v.42Z" transform="translate(-118.75 -305.39)"/><path d="M295.67,336.21c-.27-1.2.62-1.15,1.37-1.31a6.3,6.3,0,0,0,2.46-1c-3.14.89-6.61.83-9.55,2.87l-.86-.81v.38l-5.24.6c.8-1,2.19-.6,2-2,0-.2,1.63-.57,2.51-.86,2.7-.88,5.39-1.76,8-2.91l-5.13.83,2.09-1.64-.29-.5-6.14,2L285,331l.26-.84c1.42.47,1.74-.85,2.49-1.48.14-.12.47,0,.7,0l5.25-1-.1-.43-5.37-.61,2.77-.9-.06-.27-3.43.22-.08-.44,1.51-.79-1.34-2.64c-1.49.29-3.31.6-5.1,1s-3.49.92-5.3,1.4l-.43-1.32,7.52-3.61c-.95-.86.21-1,.75-1.39,2-1.27,3.92-2.51,6.07-3.89l-1.69-1.05c.38-.2.66-.47.93-.46a9.18,9.18,0,0,1,1.61.42c.64-.85,1.48-2,2.35-3.11s1.73-1.56,3-.35,2.55,2,3.78,3.06a3.23,3.23,0,0,1,1.05,1.43,3.79,3.79,0,0,0,1.68,2.21,8.26,8.26,0,0,1,1.47,1.84,93.81,93.81,0,0,1,6.39,8.15,46.48,46.48,0,0,0,5.66,6.82c3.28,3.56,3.09,3.77.56,7.12a18.52,18.52,0,0,1-13,7.18,7.79,7.79,0,0,1-2.28.09l1.14-.63-.11-.28c-.71.14-1.42.31-2.14.42a3.85,3.85,0,0,1-1.17.05c-1-.12-2-.3-3-.45l-.22.54-.37-1.07-5.29.4-.05-.29,2.17-.63-3.68-.29,0-.46,4.07-1.19-.07-.47c-.75.14-1.51.26-2.26.44s-1.63.44-2.45.66l-2.46.63c1-2.6,3.43-2.31,5.31-3.13l-.64-1c3.92.22,5.33-3.41,8-5.08l-3.65.76Zm-.1,8.51.07.46c1.36-.15,2.71-.32,4.07-.43,2.1-.17,4.22-.21,6.32-.46.61-.07,1.16-.62,1.74-1l-.24-.59Z" transform="translate(-118.75 -305.39)"/><path d="M409.72,429.42c1.85-.05,3,1.19,4,2.42a78.59,78.59,0,0,1,14.5,31.25c3.49,15.43,2.91,30.86-.13,46.27a20.9,20.9,0,0,1-1.26,4.39q1.64-12.19,3.26-24.39l-.48-.07c-.89,6.43-1.79,12.86-2.67,19.21-.43-.29-.82-.53-1.17-.82-.51-.42-1-.88-1.47-1.33l-.05,0a1.69,1.69,0,0,0,.23-.44,110.46,110.46,0,0,0,.67-40.57c-.32-1.81-.45-3.68-1.8-5.33a4.51,4.51,0,0,1-.85-4.27c.3-.93-.54-2.22-.95-3.63l-.48,1.37-1.55-3.7.28-.12.69.55a27.76,27.76,0,0,0-2.52-5.6c-1.88-3-4-6-5.94-9l0,.05c-.95-1.3-1.94-2.58-2.83-3.93a7.45,7.45,0,0,1-.64-1.71Z" transform="translate(-118.75 -305.39)"/><path d="M326.2,574.4c2.79.7,5.56,1.5,8.38,2.09,22.83,4.79,43.13-.23,60.52-16,13.36-12.09,21.6-27.36,26.85-44.4.16-.51.31-1,.47-1.55l3.09.47a4.35,4.35,0,0,1-.09,1c-.75,3-1.43,6.09-2.34,9.08-.47,1.53-.72,3.16-2.38,4.27-1,.67-1.4,2.29-2,3.51-.78,1.51-1.44,3.09-2.32,4.54-.57,1-.57,2.53-2.27,2.49-.05,0-.1.19-.16.28-1.75,2.74-3.47,5.49-5.26,8.19a25.37,25.37,0,0,1-1.87,2.16c-2.22,2.63-4.42,5.27-6.65,7.92L401,558c-2.56,3-5.21,5.94-8.95,7.1,1.29-1.44,2.72-3,4.24-4.74-12.72,11.41-27.38,18.06-44.47,18.61A63,63,0,0,1,326.2,574.4ZM423,517.86l-.31-.1-2.37,6.7.4.13Z" transform="translate(-118.75 -305.39)"/><path d="M245.1,525.27a26.61,26.61,0,0,0-11.24-14c-1.19-.77-2.53-1.32-3.78-2-.82-.46-1.78-.49-2.13-1.88-.19-.74-2.09-1-3.36-1.26l1,.82c0,.12,0,.28-.06.3-.74.28-1.56.9-2.2.74-5-1.19-9.87-2.56-14.8-3.83-1.76-.45-3.55-.74-5.31-1.17a20.13,20.13,0,0,1-2.19-.84l.06-.45,2.6-.16.07-.3-2.58-.84C214,501.77,226.5,504,237,512.05c9.45,7.19,12.93,16.9,11.13,28.51a34.93,34.93,0,0,1-5.76,15.06l-.74-.49a40.13,40.13,0,0,0,4.83-11.28,32,32,0,0,0-.85-17.52,8,8,0,0,0-.59-1.12Z" transform="translate(-118.75 -305.39)"/><path d="M214.71,427.87a29.09,29.09,0,0,0-19.51,1.26,44.93,44.93,0,0,0-13.85,8.78c6.55-4.69,13.43-8.68,21.49-10.1,2-.36,4.11-.33,6.41-.5-4.43,1-8.66,1.68-12.72,2.93-6.87,2.11-12.51,6.29-17.46,11.42-2.18,2.25-4.32,4.54-6.56,6.73a11.8,11.8,0,0,1-5.85,3.5l1-1.52-.16-.25-2,1.11a9.66,9.66,0,0,1,.77-1.05c2.76-2.84,5.48-5.71,8.31-8.48,1.05-1,2.41-1.68,3.52-2.64s2.12-2.32,3.33-3.28C187,431.36,193,427.64,200,426a27.6,27.6,0,0,1,11.76-.24c.77.15,1.34,1.07,2.31.56.1-.05.63.74,1,1.15Z" transform="translate(-118.75 -305.39)"/><path class="cls-1" d="M172.06,565.12c.87-.16,1.64-.14,2,.9.06.19.3.44.46.44,1.84.06,2.15,1.83,3.21,2.75a25.57,25.57,0,0,0,2.61,1.49,20.2,20.2,0,0,0,5.94,2.4c1.62.48,3,1.77,4.55,2.44,6.44,2.76,13.06,4.92,20.11,5.46a8.05,8.05,0,0,1,1.35.33l-.12.62c-2.88-.46-5.8-.75-8.64-1.41s-5.62-1.68-8.45-2.42c10.55,4.37,21.45,6.4,32.9,4.76-1.43.21-2.86.49-4.3.61s-3,.12-4.45.12-3.09,0-4.62-.08a76.13,76.13,0,0,1-20.32-4.59,90.73,90.73,0,0,1-18.91-10.29,68,68,0,0,1-6.13-4.31c-3.79-3.26-7.4-6.72-11.09-10.1l.67-.69c2,1.59,4,3.17,6,4.79a3.64,3.64,0,0,1,.67,1.1,3.24,3.24,0,0,0,.56,1C168,562,170,563.55,172.06,565.12Z" transform="translate(-118.75 -305.39)"/><path d="M325.94,561.5c9.6,4.38,19.72,4.58,30.09,4l-.22-1.19,3.6-1-10.9.6c5.32-.9,10.7-2.19,16.15-2.6,3.28-.24,5.94-1.52,8.76-2.74a1.74,1.74,0,0,1,1.24.19,3.89,3.89,0,0,1,.9.87C364.92,568.77,338.6,568.78,325.94,561.5Z" transform="translate(-118.75 -305.39)"/><path class="cls-1" d="M234.76,460.19c.68-1.45,1.38-2.88,2-4.34a4.27,4.27,0,0,0,.2-1.17l.39.09c1-2.13,2-4.16,3-6.39l-.21-1.34.32-.07.51,1c.53-2.2,1-4.08,1.42-5.95l-.26-.12-.64.92a18.3,18.3,0,0,0,.59-8.88c-.61-3-1.94-5.8-2.78-8.92.66.78,1.65,1.46,1.91,2.35,1,3.41,2.6,6.73,1.95,10.46a14.89,14.89,0,0,0,0,2.41l.68,0c-.12-2.21-.19-4.42-.38-6.62a17.75,17.75,0,0,0-1.37-6.36c-1-2-1.77-4.17-2.58-6.29,2.22,3.13,3.5,6.7,4.79,10.28,1.41,3.89.69,7.79.16,11.67a42.05,42.05,0,0,1-1.5,5.28c-.44,1.57-.46,3.42-1.33,4.69-2.06,3-2.59,7-6,9l-.53-.67Zm6.75-10.72-.46-.2-3.29,7.43.53.23Zm.1-1.51.66.14c.21-1.09.41-2.19.63-3.28s.42-2,.64-2.94l-.43-.09Z" transform="translate(-118.75 -305.39)"/><path d="M291,367c8.75-.44,17.19-2,25.1-5.84a17.53,17.53,0,0,0,3.34-2.17,58.62,58.62,0,0,1-20,6.13c2.44-.69,4.89-1.33,7.31-2.09,5.35-1.67,10.66-3.45,15-7.23a1.44,1.44,0,0,1,2.27.39,2.06,2.06,0,0,1-.12,1.94,8.14,8.14,0,0,1-2.43,1.91,79.3,79.3,0,0,1-22.77,7.87,5.73,5.73,0,0,1-4.73-.83C293.37,366.62,292.05,367,291,367Z" transform="translate(-118.75 -305.39)"/><path d="M269.5,374.11l-.24,1.29,1.51-.78a4.44,4.44,0,0,0-.23.68c0,.35-.05.71-.08,1.07l.92-.31,1.45-.54c-1,1.54-.87,1.72,1.94,2.88-.35.76-.69,1.52-1.12,2.44l-4.6-3.11c.08.23.17.47.25.71-1.65-.47-2.12-.9-2.63-2.35a.56.56,0,0,0-.22-.24c-1.3-.75-2.63-1.48-3.91-2.26s-2.32-1.46-3.44-2.25c-.19-.14-.18-.57-.4-1.34l2.14,1.67.14-.14-3.44-4.14.24-.23,3,1.52c-.14.75-.38,1.72,1.08,1.37l.8,1.77.38-.16v-.82l.34,0,.27,1.68C266.06,371.1,266.88,375.24,269.5,374.11Z" transform="translate(-118.75 -305.39)"/><path d="M398.78,538.42c3.59-2.35,5.21-6,6.48-9.84.35-1.07,1.21-2,1.65-3,.72-1.67,1.31-3.39,1.92-5.1.08-.24-.05-.55,0-.8.71-2.1,1.4-4.21,2.2-6.29a2.27,2.27,0,0,1,1.35-1.07c-4,12.49-8.4,24.74-18.34,34q2.63-3.1,5.23-6.23l-.3-.3-1.38,1.12c.51-1,.86-1.79,1.21-2.53Z" transform="translate(-118.75 -305.39)"/><path d="M245,525.21c.48,2.24,1.14,4.45,1.41,6.7a31.59,31.59,0,0,1-3.7,19.08c.05-.25.08-.51.15-.76a7.19,7.19,0,0,1,.27-.78A43.43,43.43,0,0,0,246,534.84c0-8.9-3.79-15.74-10.92-20.83-1.74-1.24-3.67-2.19-5.5-3.3a15.13,15.13,0,0,1-1.3-1l.24-.42a15.83,15.83,0,0,1,1.69.71c6.33,3.45,11.49,8.05,14.41,14.82.08.17.29.28.43.41Z" transform="translate(-118.75 -305.39)"/><path d="M363.48,545.88a2,2,0,0,1-2.44,2.34,5.72,5.72,0,0,0-5,1.38c-.93.79-2.69.68-4.1.83a33.62,33.62,0,0,1-13.3-1.14l9.1.75.05-.25-2.1-.51C351.89,549.48,357.68,548,363.48,545.88Z" transform="translate(-118.75 -305.39)"/><path d="M285.93,314l-.15.8-.49-.21c.22-.45.31-1.05.67-1.32,1.87-1.43,3.8-2.77,5.7-4.15a16,16,0,0,0,1.25-1.07l-.3-.37-5.74,3.86a23.11,23.11,0,0,1,7-6,1.35,1.35,0,0,1,1.27.31,3.52,3.52,0,0,1,.56,1.59,1,1,0,0,1-.41.69c-2.74,2-5.49,4-8.27,5.89C286.82,314.09,286.39,314,285.93,314Z" transform="translate(-118.75 -305.39)"/><path d="M141.15,421.68c0,1.45-.1,2.92,0,4.37.08.92.58,1.8.7,2.73a2.23,2.23,0,0,1-3.69,2.17c2.55-.53,2-2.2,2-3.62s0-2.74,0-4.1a8.1,8.1,0,0,1,.43-1.64Z" transform="translate(-118.75 -305.39)"/><path d="M260.48,378.85a3,3,0,0,0,2.94,2.9.7.7,0,0,1,.32.09l4.76,3.35c-2,.35-9.47-4.43-10.79-7.07,1,.54,1.66,1.82,2.83.79Z" transform="translate(-118.75 -305.39)"/><path d="M398.19,529.93c-2.24,4.7-4.49,9.38-8.43,13Z" transform="translate(-118.75 -305.39)"/><path d="M241.65,555.13l.74.49c-.95,1.48-1.75,2.92-3.59,3.74-1.38.61-3.06,2.08-3.28,3.39-.39,2.28-2.19.71-2.79,2Z" transform="translate(-118.75 -305.39)"/><path d="M333.87,571a6.49,6.49,0,0,1,1.73-.18c2.83.45,5.64,1,8.45,1.59A16.44,16.44,0,0,1,333.87,571Z" transform="translate(-118.75 -305.39)"/><path d="M400,526.93c1.88-4.56,3.63-8.81,5.43-13.2.72,1.9-.87,2.95-1.29,4.34a40.92,40.92,0,0,1-1.69,4.61C401.85,524.07,402,525.86,400,526.93Z" transform="translate(-118.75 -305.39)"/><path d="M401.56,502.62c.47-5.6.92-10.88,1.35-16C403.58,488.89,402.88,497.94,401.56,502.62Z" transform="translate(-118.75 -305.39)"/><path d="M387.13,473.92c2.57,2.69,1.71,5.72,1.84,8.6l-.49.08Z" transform="translate(-118.75 -305.39)"/><path d="M398.32,491.36c.53,3.79.17,9.41-1.14,11.17C397.57,498.71,397.94,495,398.32,491.36Z" transform="translate(-118.75 -305.39)"/><path d="M159.82,553.23c-1.57-1.49-3.16-3-4.72-4.47-1.36-1.31-2.67-2.68-4-4l.39-.39c2.71,2.78,5.42,5.54,8.12,8.33.12.13.12.38.18.58Z" transform="translate(-118.75 -305.39)"/><path d="M379.4,573.37h-1.15l9.77-5.63c-1.14,1-2,2.38-3.51,3s-3,1.53-4.48,2.31Z" transform="translate(-118.75 -305.39)"/><path d="M143.35,549l4.89,5.83c-.31,0-.75,0-.92-.15-1.69-1.76-3.33-3.56-5.14-5.51Z" transform="translate(-118.75 -305.39)"/><path d="M381.61,551.73c.61,3.59.47,4-1.68,4.42C380.11,554.56,379.77,552.86,381.61,551.73Z" transform="translate(-118.75 -305.39)"/><path d="M352,571.84l7.52-.87.06.45c-2.39,1.12-4.95,1.09-7.52.93Z" transform="translate(-118.75 -305.39)"/><path class="cls-1" d="M146,425.77l-.72.26-.07-5.72.49.33C145.76,422.36,145.86,424.06,146,425.77Z" transform="translate(-118.75 -305.39)"/><path d="M386.52,471.47c-1.27-3.21-2.53-6.37-3.81-9.59C384.48,463.59,386.64,469,386.52,471.47Z" transform="translate(-118.75 -305.39)"/><path class="cls-1" d="M171.25,568.84l-2.92-2.74.34-.41L175,571Z" transform="translate(-118.75 -305.39)"/><path d="M409.72,429.42l-1.11.67c-.23-1.12-.45-2.23-.68-3.34l-.14,0a1.39,1.39,0,0,1,.21-.21C410,426.48,410.63,427.52,409.72,429.42Z" transform="translate(-118.75 -305.39)"/><path d="M414.11,506.37c-1.31-1.21-.85-3.87,1-6.33Z" transform="translate(-118.75 -305.39)"/><path d="M218.86,568.56c-2.13,1.35-4.32.71-6.51,0Z" transform="translate(-118.75 -305.39)"/><path d="M181.24,574.66c.92.63,1.84,1.26,2.77,1.87.65.42,1.31.82,2,1.22l-.39.62-7.33-4.75,3,1.11Z" transform="translate(-118.75 -305.39)"/><path d="M349.53,560.36c3.22-1.15,6.72-1.37,7.86-.45Z" transform="translate(-118.75 -305.39)"/><path d="M393.37,483.55c.1,1.92.21,3.84.33,6C392.34,488.54,392.16,485.61,393.37,483.55Z" transform="translate(-118.75 -305.39)"/><path d="M205.73,584.92c-2.65,0-5.29,0-7.74-2l6.41,1.4-.06,0,1.35.69Z" transform="translate(-118.75 -305.39)"/><path d="M399.69,505.39l-2.08,6.73-.59-.18a31.37,31.37,0,0,1,2.26-6.62Z" transform="translate(-118.75 -305.39)"/><path d="M397.36,513.74l-2.28,6.16-.58-.2q1.06-3.09,2.11-6.16Z" transform="translate(-118.75 -305.39)"/><path d="M395.86,564.25l6.87-6.29.27.28-6.77,6.39Z" transform="translate(-118.75 -305.39)"/><path d="M414.61,542.12q2.19-4,4.37-8l.42.23-4.35,8Z" transform="translate(-118.75 -305.39)"/><path d="M387.87,484.64v8.25h-.2c0-1.73,0-3.47,0-5.21,0-.5.5-1.41-.7-1.35l.15-1.8Z" transform="translate(-118.75 -305.39)"/><path d="M398.72,488.87c-.29-1.62-.57-3.24-.87-4.92H399v4.93Z" transform="translate(-118.75 -305.39)"/><path d="M387.4,534.88c.33.63,1,1.4.83,1.69a6.39,6.39,0,0,1-1.68,1.49C386.36,535.83,386.36,535.83,387.4,534.88Z" transform="translate(-118.75 -305.39)"/><path class="cls-1" d="M181.3,574.73l-3-1.11-2.93-2.43Z" transform="translate(-118.75 -305.39)"/><path class="cls-1" d="M245,589.87l-4.31,1.91-.23-.53c1.43-.75,2.79-1.78,4.57-1.35Z" transform="translate(-118.75 -305.39)"/><path d="M196.36,571.43l7.23,2-.13.45-7.19-2Z" transform="translate(-118.75 -305.39)"/><path d="M384.87,550.54v4.87C384,551.33,384,551.33,384.87,550.54Z" transform="translate(-118.75 -305.39)"/><path d="M237.33,437.74l-1.09-7,.36-.06q.6,3.49,1.19,7Z" transform="translate(-118.75 -305.39)"/><path d="M394.8,526.68l-2.49,4.61-.54-.29,2.53-4.7Z" transform="translate(-118.75 -305.39)"/><path d="M257.65,458.79q1.32-3.33,2.63-6.64l.39.15L258,459Z" transform="translate(-118.75 -305.39)"/><path d="M340.23,547.28l7.12.76,0,.37-7.12-.62Z" transform="translate(-118.75 -305.39)"/><path d="M392.16,528.79l-3.24,4.29-.3-.21,3-4.5Z" transform="translate(-118.75 -305.39)"/><path d="M229.67,566.33l-6.77,1.93-.11-.34,6.72-2.09Z" transform="translate(-118.75 -305.39)"/><path d="M304.75,555.05l4.15,3.73-.34.38-4.12-3.76Z" transform="translate(-118.75 -305.39)"/><path d="M331.66,571l-4.07-1.69.25-.61,4.06,1.71Z" transform="translate(-118.75 -305.39)"/><path d="M379.4,573.37l.63-.32,2.12-.61.14.33-5.24,2.45-.18-.36C377.72,574.37,378.56,573.87,379.4,573.37Z" transform="translate(-118.75 -305.39)"/><path d="M147.27,429.39l0-.05c-.21-.33-.61-.66-.62-1,0-2.24,0-4.49.06-6.73Z" transform="translate(-118.75 -305.39)"/><path d="M243.69,366.79c-1.13.48-1.92-.37-1.8-2.38Z" transform="translate(-118.75 -305.39)"/><path d="M252.94,367.43l-.41-.43-1.95-4,.23-.12,3.11,5-.25.2Z" transform="translate(-118.75 -305.39)"/><path d="M187.3,568.87l4.84,2.49-.2.41-4.9-2.38Z" transform="translate(-118.75 -305.39)"/><path d="M376.47,558.62l.68-2.73.86.23-.75,2.71Z" transform="translate(-118.75 -305.39)"/><path d="M224.88,465.44c.26-.22.51-.59.81-.63,1-.15,2.06-.18,3-.25l-.46,1.16-3.42-.32Z" transform="translate(-118.75 -305.39)"/><path d="M344.1,563.63l-4.69-.4C340,562.5,340.9,562.5,344.1,563.63Z" transform="translate(-118.75 -305.39)"/><path d="M295.65,336.18l-4.25,1.35c1.4-1.52,3.15-2,4.27-1.32Z" transform="translate(-118.75 -305.39)"/><path d="M252.69,468.36c-1.14,1.42-2.29,2.83-3.44,4.25l-.31-.25q1.71-2.13,3.41-4.27Z" transform="translate(-118.75 -305.39)"/><path class="cls-1" d="M243.56,454.94a101.21,101.21,0,0,0,3.32-9.62c2.64-11.09-.16-20.92-7.65-29.37-2.67-3-5.84-5.6-8.69-8.28,4.65,2,8.24,5.54,11.22,9.75a45.19,45.19,0,0,1,6.39,14c.46-1.31.87-2.47-.15-3.81-.74-1-.94-2.33-1.45-3.49-.89-2-1.83-4.07-2.66-5.91,4.2,3.67,7.1,8.62,7.17,21.45l.53-1.43a8.19,8.19,0,0,1,.21,5.87,18.18,18.18,0,0,1-1.35,3c0,.05-.09.1-.08.14.71,2.42-1.52,3.8-2,5.78,0,.08.08.2.18.43l1-1.46.49.21c-.56,1.32-1.16,2.61-1.64,3.95a8.12,8.12,0,0,0-.18,2l-1.21.24c1.2,1.81,1.17,1.89-.93,2.91,0,0-.14,0-.15.06-.73,2-3.56,2.72-3.27,5.38,0,.39-.39.84-.67,1.39l-1-.88a3.07,3.07,0,0,0-.19.44c-.51,2-1.59,2.61-3.5,2-1.49-.49-3-1-4.89-1.7l5.37-4.49.44.36V466c.83-1,1.54-1.73,2.17-2.55.1-.13-.21-.52-.25-.8-.09-.53-.34-1.21-.13-1.6,1.15-2.08,2.42-4.09,3.66-6.13.06.27.12.55.19.85l.71-.46.24.25-2.22,3.37c.45.1.64,0,.76-.12,3-3.41,3.67-7.83,5.14-11.89a24.54,24.54,0,0,0,.88-4.95,11.48,11.48,0,0,0,0-1.76c-1.81,1.27-1,3.08-1.45,4.6-.27.93-.51,1.87-.78,2.81-.12.39-.45.78-.43,1.15A6.46,6.46,0,0,1,243.56,454.94Zm5.29-18.32.72-.08-.33-2.86C248.76,434.68,247.67,435.69,248.85,436.62Z" transform="translate(-118.75 -305.39)"/><path class="cls-1" d="M412,435.68c2,3,4.06,5.92,5.94,9a27.76,27.76,0,0,1,2.52,5.6l-.69-.55-.28.12,1.55,3.7.48-1.37c.41,1.41,1.25,2.7.95,3.63a4.51,4.51,0,0,0,.85,4.27c1.35,1.65,1.48,3.52,1.8,5.33a110.46,110.46,0,0,1-.67,40.57,1.69,1.69,0,0,1-.23.44c.39-4.87,1-9.73,1.1-14.6.09-6.69.45-13.5-.58-20.05-1.9-12-5.53-23.46-12.4-33.69C412,437.45,412.14,436.48,412,435.68Z" transform="translate(-118.75 -305.39)"/><path class="cls-1" d="M250.59,464.26c1-1.92,2.09-3.8,3-5.75a53.59,53.59,0,0,0,4.79-20.2c.49-8.5-1.88-16.31-5.73-23.54-3.24-6.06-8.29-10.83-13.83-15.07a45.81,45.81,0,0,0-15.14-7.25c-.86-.26-1.67-.67-2.5-1l.19-.54a77.67,77.67,0,0,1,8.18,2.73A119.3,119.3,0,0,1,241,399.58a34,34,0,0,1,5.38,4.48c.48.44.51,1.34.94,1.87a29.86,29.86,0,0,0,2.39,2.38,20.74,20.74,0,0,0,1.48,2.87c6.1,8.53,8.44,18.11,8,28.46A43.86,43.86,0,0,1,250.59,464.26Z" transform="translate(-118.75 -305.39)"/><path class="cls-1" d="M316.52,502c11.75-12.51,17.47-28.19,23.19-43.86.37-1,.51-2.09.79-3.14.06-.25.23-.66.38-.67,2.23-.23,2.78-2.5,4.35-3.53s3.34-2.24,4.94-3.32a98.61,98.61,0,0,0-6.68,7.35c-4.94,6.59-7.61,14.27-10,22a53.31,53.31,0,0,1-16.53,24.9A2.71,2.71,0,0,1,316.52,502Z" transform="translate(-118.75 -305.39)"/><path class="cls-1" d="M407.93,426.75c.23,1.11.45,2.22.68,3.34a7.45,7.45,0,0,0,.64,1.71c.89,1.35,1.88,2.63,2.83,3.93l-1,.29c-3.84-6.59-9.42-11.57-15.65-15.89-2.11-1.47-4.32-2.79-6.41-4.29-5.18-3.74-11.18-5.14-17.31-6.22-1.45-.26-2.9-.47-4.48-.73,1.9-.74,7,0,10.15.93,10.49,3.07,19.11,9.16,26.86,16.66l1.52,1.51.27.16,1.7-1.42.08.11Z" transform="translate(-118.75 -305.39)"/><path class="cls-1" d="M367.89,573.69a93.92,93.92,0,0,1-9.54,2.08c-4,.47-8,.45-12,.61a1.71,1.71,0,0,1-1.3-.59,4.19,4.19,0,0,1,.7-.09c13,.67,24.75-3.22,36-9.35a2.78,2.78,0,0,1,1.78-.18c-1.23,1-2.14,2.54-4,2-.17,0-.56.1-.58.21-.39,1.69-2,.94-2.91,1.5s-2,1.43-3.06,2.14c-.12.09-.32,0-.49.07s-.47-.36-.63-.31c-2.13.65-4.24,1.35-6.36,2l.07.26Z" transform="translate(-118.75 -305.39)"/><path class="cls-1" d="M341,463c-4.68,11.16-8.06,22.94-15.9,32.56C331.52,485.29,335.23,473.67,341,463Z" transform="translate(-118.75 -305.39)"/><path class="cls-1" d="M272.31,563.28c-2,7.6-13.24,18.88-19.94,22.53,3.29-3,7-6.58,10.9-10S269.33,567.62,272.31,563.28Z" transform="translate(-118.75 -305.39)"/><path class="cls-1" d="M278.6,506.74a40.93,40.93,0,0,0,20.63,4.15C293.26,512.81,280.15,510.2,278.6,506.74Z" transform="translate(-118.75 -305.39)"/><path class="cls-1" d="M385,444.16c1.41,1.53,2.9,3,4.21,4.62a49.18,49.18,0,0,1,9.16,18.74c.09.37-.26.86-.4,1.29l-.5-.08a10.43,10.43,0,0,0-.05-2.74A18.41,18.41,0,0,0,396,462.9a6.52,6.52,0,0,1-.66-1.21,15.93,15.93,0,0,0-.56-2.83A47.77,47.77,0,0,0,385.1,445a5.32,5.32,0,0,1-.44-.59Z" transform="translate(-118.75 -305.39)"/><path class="cls-1" d="M214.44,585.8a56,56,0,0,0,15.56-.87,58,58,0,0,0,14.58-5.44c-.29.23-.57.48-.88.69a10.82,10.82,0,0,1-1.13.67c-5.17,2.77-10.55,4.86-16.5,5.07-3.37.12-6.75.22-10.13.28a5.53,5.53,0,0,1-1.47-.42Z" transform="translate(-118.75 -305.39)"/><path class="cls-1" d="M219,401.79c8.93,2.06,16.73,6.08,22.67,13.3C235.43,408.32,227.64,404.29,219,401.79Z" transform="translate(-118.75 -305.39)"/><path class="cls-1" d="M225.75,422.11c0,1.08.3,1.88,1.57,2.09a1.59,1.59,0,0,1,.91,1.12,15.79,15.79,0,0,1,.07,2.92c0,.22-.21.44-.33.65-.24-.16-.61-.28-.69-.5a8,8,0,0,1-.28-1.62c-.07-.61,0-1-.86-1.42s-1.39-1.74-2.24-2.89l1.87-.3Z" transform="translate(-118.75 -305.39)"/><path class="cls-1" d="M225.75,422.11l0,.05c-.08-2.34-1.9-3-3.64-3.8-1.29-.56-2.61-1.09-3.86-1.73a22.43,22.43,0,0,1,11.18,6.31l-1.58,1.19C228.11,422.28,226.61,422.59,225.75,422.11Z" transform="translate(-118.75 -305.39)"/><path class="cls-1" d="M324.86,428.17c1.36-.57,1.37-1.62,1-2.81-.27-.9-.35-1.71.92-1.83l-.1-.07c1,1.7.6,3.5.68,5.27l-.44,0-.14-2.18c-.22,1-.34,2.23-1.94,1.48Z" transform="translate(-118.75 -305.39)"/><path class="cls-1" d="M277.75,552.06v5.56l-.52.07c-.68-1.32,0-2.85-.28-4.49l-.32.73-.36-.13.81-2Z" transform="translate(-118.75 -305.39)"/><path class="cls-1" d="M172.06,565.12c-2-1.57-4.06-3.13-6.05-4.72a3.24,3.24,0,0,1-.56-1c2.13,1.64,4.26,3.28,6.37,4.95C172,564.52,172,564.87,172.06,565.12Z" transform="translate(-118.75 -305.39)"/><path class="cls-1" d="M406.65,470.29c.33,1.93,1.74,3.68.65,6.23-.47-2.3-.87-4.22-1.27-6.15Z" transform="translate(-118.75 -305.39)"/><path class="cls-1" d="M324.86,428.17v-.09c-.06.94-.5.84-1,.35-.86-.81-.55-1.92.83-2.69Z" transform="translate(-118.75 -305.39)"/><path class="cls-1" d="M389.85,454.82l2.92,5.7-.54.29-3.06-5.64Z" transform="translate(-118.75 -305.39)"/><path d="M367.89,573.69l-2.37.35-.07-.26c2.12-.68,4.23-1.38,6.36-2,.16,0,.42.2.63.31Z" transform="translate(-118.75 -305.39)"/><path class="cls-1" d="M212.33,389.33l8,1.33-.07.46-8.06-1.23Z" transform="translate(-118.75 -305.39)"/><path class="cls-1" d="M326.7,423.46l.1.07c-.9-2.81-2.19-.19-3.35-.2a1.82,1.82,0,0,1,2-1.88c.61,0,1.21.86,1.78,1.36C327.21,422.83,326.87,423.23,326.7,423.46Z" transform="translate(-118.75 -305.39)"/><path class="cls-1" d="M401.4,462.86,397.8,455l.4-.17c1.11,2.65,2.87,5,3.17,8Z" transform="translate(-118.75 -305.39)"/><path class="cls-1" d="M205.69,585l-1.35-.69c2.35.38,4.69.78,7,1.15,1,.17,2,.27,3.06.39l0,0c-2.33-.24-4.68-.47-7-.69C206.87,585,206.28,585,205.69,585Z" transform="translate(-118.75 -305.39)"/><path class="cls-1" d="M392.5,462c2.09.59,1.71,2.22,1.95,3.6l-.39.17Z" transform="translate(-118.75 -305.39)"/><path class="cls-1" d="M216.85,493.28l-7.07-1.12.06-.39,7.14,1.12Z" transform="translate(-118.75 -305.39)"/><path class="cls-1" d="M275.21,555.47c.07.82.12,1.49.17,2.16l-.39.21-1.52-2.07Z" transform="translate(-118.75 -305.39)"/><path class="cls-1" d="M245,589.9a2.94,2.94,0,0,1-.13-.56,22.89,22.89,0,0,1,5.05-1.69l-5,2.22Z" transform="translate(-118.75 -305.39)"/><path class="cls-1" d="M233.3,571.87l-4.46,1.66-.18-.45,4.45-1.72Z" transform="translate(-118.75 -305.39)"/><polygon points="289.18 121.36 289.09 121.45 289 121.35 289.04 121.33 289.18 121.36"/><path class="cls-1" d="M302.89,403.55a49.06,49.06,0,0,1-5,.37c-4.32-.11-8.65-.35-13-.58-.5,0-1.48.27-1.2-.92,0,0-.21-.17-.26-.14-1,.56-1.62-.25-2.44-.47a117.36,117.36,0,0,1-17-7,57.38,57.38,0,0,1-12.69-9.65,5.86,5.86,0,0,1,.61.32c4,2.71,7.86,5.62,12,8.11a73.73,73.73,0,0,0,23.48,8.75,54.5,54.5,0,0,0,7.28.7,34.38,34.38,0,0,0,8.11-.08Z" transform="translate(-118.75 -305.39)"/><path class="cls-1" d="M296.84,378.36h-8.57v-.42Z" transform="translate(-118.75 -305.39)"/><path class="cls-1" d="M295.57,344.72l12-2,.24.59c-.58.34-1.13.89-1.74,1-2.1.25-4.22.29-6.32.46-1.36.11-2.71.28-4.07.43Z" transform="translate(-118.75 -305.39)"/><path class="cls-1" d="M423,517.86l-2.28,6.73-.4-.13,2.37-6.7Z" transform="translate(-118.75 -305.39)"/><path d="M241.51,449.47l-3.22,7.46-.53-.23,3.29-7.43Z" transform="translate(-118.75 -305.39)"/><path d="M241.61,448l1.5-6.17.43.09c-.22,1-.44,2-.64,2.94s-.42,2.19-.63,3.28Z" transform="translate(-118.75 -305.39)"/><path d="M243.56,454.94a6.46,6.46,0,0,0,3.11-6.19c0-.37.31-.76.43-1.15.27-.94.51-1.88.78-2.81.43-1.52-.36-3.33,1.45-4.6a11.48,11.48,0,0,1,0,1.76,24.54,24.54,0,0,1-.88,4.95c-1.47,4.06-2.17,8.48-5.14,11.89-.12.15-.31.22-.76.12l2.22-3.37-.24-.25-.71.46c-.07-.3-.13-.58-.19-.85Z" transform="translate(-118.75 -305.39)"/><path d="M248.85,436.62c-1.18-.93-.09-1.94.39-2.94l.33,2.86Z" transform="translate(-118.75 -305.39)"/></svg>